<svg xmlns="http://www.w3.org/2000/svg" xmlns:xlink="http://www.w3.org/1999/xlink" viewBox="0 0 1740.26 715.26"><defs><style>.cls-1{font-size:290.72px;font-family:OpenSans-ExtraBold, Open Sans;font-weight:800;}.cls-1,.cls-2,.cls-5{fill:#243453;}.cls-3{fill:url(#linear-gradient);}.cls-4{fill:#fff;}.cls-5{font-size:30px;font-family:OpenSans-Bold, Open Sans;font-weight:700;letter-spacing:0.08em;}.cls-6{font-size:168.86px;fill:#327ec0;font-family:OpenSans, Open Sans;letter-spacing:0.32em;}</style><linearGradient id="linear-gradient" x1="1094.1" y1="406.64" x2="1740.26" y2="406.64" gradientUnits="userSpaceOnUse"><stop offset="0" stop-color="#2275b5"/><stop offset="0.5" stop-color="#205b9d"/><stop offset="1" stop-color="#1d3e81"/></linearGradient></defs><g id="Calque_2" data-name="Calque 2"><g id="Calque_1-2" data-name="Calque 1"><text class="cls-1" transform="translate(3.88 441.68)">SHIELD</text><path class="cls-2" d="M1591.19,341.49c-8.59,0-17.76-.22-27.24-.66-121.34-10.47-218.56-29.86-289-57.64-48.55-19.15-84.53-42.38-107-69.08-.07-23.46.18-49.18.46-78.76v-.11c.2-20.39.4-41.44.52-64.78,4-1.69,9.11-4.33,16.53-8.2C1221.18,43.62,1304.73,0,1414.21,0c3.45,0,7,0,10.46.13,39,1,78.89,8.18,133.4,24.06,86,25.07,114.67,39.4,123.19,44.58-.13,45.61-.13,91.8-.12,136.51q0,36.57,0,73.14v.46l0,.46a214,214,0,0,1-2.9,48.57C1665,334.48,1639.55,341.49,1591.19,341.49Z"/><path class="cls-3" d="M1734.93,386.57c-12.42,26.59-41.37,35-68.35,42.72-51,87.81-156.45,144.42-236.33,209.35-5.38,4.2-8.9,4-14.28-.1-213.55-156.74-263.42-195.95-265.76-316.41-15-12.42-26.5-25.82-38.33-44.29-11.64-18.29-34.52-82.34,2.25-102.87,6.06-2.83,14-7.14,12.51,2.84-4.1,76.36,70.7,133.86,211.3,170.52,1.08.3,2.25.59,3.43.88,4.39,1.18,9,2.25,13.59,3.43,1.17.19,2.25.48,3.42.78,4.2,1,8.51,1.95,12.81,2.93,1.17.2,2.25.49,3.42.78,6.26,1.27,12.52,2.64,19,3.91,1.17.2,2.35.49,3.52.69,7.92,1.56,16,3.13,24.35,4.6l3.52.58c6.25,1.08,12.51,2.15,19,3.23,1.17.1,2.24.29,3.42.49,4.2.68,8.5,1.27,12.81,1.86,1.17.19,2.25.39,3.42.48,4.5.79,9,1.37,13.59,2,1.17.19,2.25.39,3.42.49q38.28,5.13,80.18,9c73.63,3.43,111.76-6.35,131-19.16,28.46-19.07,15.65-44.88,15.65-44.88a14.7,14.7,0,0,1-.1-1.66C1714.1,295.83,1754.58,354.2,1734.93,386.57Z"/><path class="cls-4" d="M1428,41.49l-113.41,167v38.05h106.63V204.39h-42.26a14.1,14.1,0,1,1,0-3.76h42.26V132.51a14.11,14.11,0,1,1,3.76,0V300.15h53.44v-53.6h31.13V204.09h-31.13V41.49Z"/><path class="cls-4" d="M1467.5,489.72V512.8a8.73,8.73,0,1,1-10.76,8.41,8.7,8.7,0,0,1,7.24-8.51V486.2h30.12V472.71H1425v73.72a8.61,8.61,0,0,1,7,8.41,8.76,8.76,0,0,1-17.51,0,8.62,8.62,0,0,1,7-8.41V366.33l3.52.58V469.19h72.65v20.53Z"/><path class="cls-4" d="M1341.37,349.21v63.36H1238.11a8.8,8.8,0,1,1,0-3.52h99.83V348.33C1339,348.63,1340.19,348.92,1341.37,349.21Z"/><path class="cls-4" d="M1596.67,410.81a8.83,8.83,0,0,1-8.8,8.8,8.68,8.68,0,0,1-8.41-7H1477.18V374.93c1.17.19,2.25.39,3.42.49v33.63h98.86a8.69,8.69,0,0,1,8.41-7A8.89,8.89,0,0,1,1596.67,410.81Z"/><path class="cls-4" d="M1564.2,466a8.8,8.8,0,1,1-17.6,0,8.6,8.6,0,0,1,7-8.41v-25h-93.47v-60c1.17.19,2.25.39,3.42.48v56h93.57v28.55A8.69,8.69,0,0,1,1564.2,466Z"/><path class="cls-4" d="M1530.18,485.81a8.8,8.8,0,1,1-10.56-8.41V450.32h-75.68V370.14c1.17.1,2.24.29,3.42.49V446.8h75.78v30.6A8.6,8.6,0,0,1,1530.18,485.81Z"/><path class="cls-4" d="M1404.14,554.84a8.8,8.8,0,0,1-17.6,0,8.6,8.6,0,0,1,7-8.41V472.71h-69.13V486.2h30.12v26.5a8.7,8.7,0,0,1,7.23,8.51,8.75,8.75,0,1,1-10.75-8.41V489.72h-30.12V469.19h72.65V361c1.17.2,2.35.49,3.52.69v184.7A8.7,8.7,0,0,1,1404.14,554.84Z"/><path class="cls-4" d="M1298.93,450.32v23.85a8.62,8.62,0,0,1,7,8.41,8.8,8.8,0,0,1-17.6,0,8.6,8.6,0,0,1,7-8.41V446.8h75.78V356.35c1.17.2,2.25.49,3.42.78v93.19Z"/><path class="cls-4" d="M1264.9,432.52v20.24a8.6,8.6,0,0,1,7,8.41,8.8,8.8,0,1,1-10.56-8.41V429H1355V352.64c1.17.19,2.25.48,3.42.78v79.1Z"/><text class="cls-5" transform="translate(1350.22 706.47)">4INDATA</text><text class="cls-6" transform="translate(0 643.24)">BUSINESS</text></g></g></svg>